<svg fill="none" height="33" viewBox="0 0 128 33" width="128" xmlns="http://www.w3.org/2000/svg" xmlns:xlink="http://www.w3.org/1999/xlink"><clipPath id="a"><path d="m0 0h127.705v33h-127.705z"/></clipPath><g clip-path="url(#a)" fill="#0b104f"><path d="m12.4895 25.2288c-.0172.3725.1057.738.3446 1.0244s.5764.473.946.5229c.2879-.0391.5585-.1598.7799-.348.2213-.1881.3841-.4358.469-.7136.2562-1.1563.4278-2.3297.5135-3.5109-.8767.4945-1.8738.7348-2.8795.6938-.1088.7725-.1668 1.5513-.1735 2.3314z"/><path d="m18.1306 6.41822.0832-.08326 4.8571-5.453746c.0647-.078768.0971-.179167.0907-.280913-.0065-.101746-.0513-.197256-.1254-.267236-.0579-.054119-.1318-.088085-.2105-.096837-.0788-.008752-.1583.008177-.2267.048267l-5.8423 3.996635c-.2973-.24361-.6499-.4104-1.0269-.4857-.2367-.06904-.482-.10408-.7285-.10408h-.1666c-.1318-.9159-.562-2.4077-.9575-2.13709-.5551.32611-.8951 2.08158-1.0408 3.12237-.2966.3468-.5127.75504-.6327 1.19536s-.1409.90176-.0611 1.35111c.0293.29386.0756.58577.1387.87426.5274 2.60194.1596 3.46934-.4995 4.58644-.6592 1.1171-1.5612 1.2697-4.03832 1.0616-.1803-.0368-.36418-.0531-.54815-.0486-.86287.0184-1.68793.3577-2.31404.9517-.62611.5941-1.00832 1.4002-1.07199 2.2609-.34 2.3938 1.26282 7.4451 1.83873 8.4581.64529 1.1449 1.88036 1.8735 2.69911 1.1449.64529-.6938-.63835-4.1978-1.04773-5.3705.50652.2221.99916.4094 1.45711.5759-.00585 1.3265.11262 2.6507.35387 3.955.04234.2879.17968.5533.3902.7541s.48212.3255.77161.3542c.2895.0287.5803-.0402.8262-.1957.2459-.1556.4327-.3889.5307-.6628.3383-1.1236.4791-2.2975.4163-3.4693h.6176c1.0146.0213 2.0149-.2432 2.8864-.7632 2.0816-1.2975 2.5465-3.955 2.3314-5.8354-2.3661-.5343-3.1154-2.8934-3.6567-5.0097.347 1.2559 1.131 2.8865 2.4979 3.6151l.1249.0693.0833.0417c.4405.2079.9187.3241 1.4055.3415.4868.0175.972-.0642 1.4263-.2401.4542-.1758.868-.4422 1.2161-.7829.3482-.3407.6235-.7485.8091-1.1989.4857-1.1657.0625-2.3522-1.1657-4.04519-.7355-.83263-1.4293-1.7624-1.9705-2.35219.2081.42326.2845.80488.0555.97141-.1319.06815-.2783.10371-.4267.10371-.1485 0-.2948-.03556-.4268-.10371-.2769-.10248-.5384-.24257-.7771-.41632l-.1596-.11795-.0486-.0347-.1248-.11101h-.0556l-.111-.11796-.0485-.04163c-.0359-.03127-.0685-.06615-.0972-.10408.105.11842.2323.21491.3747.28393.1425.06902.2971.1092.4551.11822.158.00903.3162-.01327.4655-.06562.1494-.05234.2869-.1337.4047-.23939z"/><path d="m16.7914 3.92728c.2012-.56897.3955-2.38688-.0832-2.28974-.4788.09714-1.02 1.0061-1.3878 1.65139.5588.02226 1.0899.2495 1.4918.63835"/><path d="m.520379 17.3881c.27888 1.4833.952421 2.8639 1.949751 3.9967.23591.3191.72855.5897.74937-.2221.03469-1.6028-1.26283-3.7607 1.71383-5.079.6106-.2706.31918-2.04-1.66526-2.3661-1.18651-.2012-3.1778846 1.1449-2.747691 3.6705z"/><path d="m37.7391 16.2016c-.6177-1.0753-1.5081-1.9686-2.5814-2.5899-1.0733-.6212-2.2914-.9483-3.5315-.9483s-2.4583.3271-3.5316.9483c-1.0732.6213-1.9637 1.5146-2.5813 2.5899-.6241 1.1042-.9448 2.3538-.9298 3.622-.0189 1.2557.2769 2.4961.8604 3.6081.5359 1.0295 1.3326 1.9004 2.3105 2.5256 1.0695.5968 2.2706.9181 3.4952.9351 1.2246.0169 2.4342-.271 3.5198-.8379.5772-.3558 1.0736-.8285 1.4571-1.3878.8851-1.5612 1.691-3.1661 2.4146-4.8084.0401-1.2785-.272-2.5434-.902-3.6567zm-2.1232 6.0574c-.3758.7039-.9343 1.2936-1.6167 1.7069-.7026.409-1.5011.6244-2.314.6244-.813 0-1.6114-.2154-2.3141-.6244-.6807-.4155-1.2387-1.0046-1.6167-1.7069-.3958-.7582-.6025-1.6009-.6025-2.4562 0-.8554.2067-1.698.6025-2.4563.3836-.7069.9489-1.2985 1.6375-1.7138.7038-.4055 1.5018-.619 2.3141-.619.8122 0 1.6102.2135 2.314.619.6784.4149 1.2303 1.0076 1.5959 1.7138.3886.7605.5912 1.6023.5912 2.4563s-.2026 1.6958-.5912 2.4562z"/><path d="m47.7515 26.9704c-1.1258.014-2.2455-.1667-3.3097-.5343-.8852-.283-1.6976-.7567-2.38-1.3877-.1226-.1191-.216-.2651-.2726-.4265s-.0749-.3337-.0535-.5033c.0136-.1693.0634-.3338.146-.4822s.1961-.2774.3328-.3782c.2432-.2424.5726-.3784.9159-.3784s.6727.136.9159.3784l.0347.0416c.3949.3904.8678.693 1.3877.8882.673.2763 1.3958.4109 2.1232.3955.7862.0298 1.5658-.1549 2.2551-.5343.2184-.1111.4061-.2743.5465-.4752s.2291-.4333.2583-.6766c-.0037-.2643-.0737-.5234-.2034-.7537-.1296-.2303-.315-.4244-.539-.5646-.8524-.4868-1.7984-.7871-2.7754-.8812-1.3585-.1711-2.6519-.6818-3.7608-1.4849-.3706-.2993-.6695-.6777-.8748-1.1075s-.3118-.9002-.3117-1.3765c-.0305-.7892.2399-1.5605.7564-2.1579.5264-.5942 1.1983-1.0413 1.9497-1.2975.7971-.2974 1.6402-.4524 2.491-.458 1.02-.0331 2.0366.1367 2.9905.4996.8068.2968 1.5236.7962 2.0816 1.4502.1115.1121.1996.2453.2591.3919.0596.1465.0894.3034.0878.4615-.0105.1502-.0546.2962-.1291.4271s-.1773.2434-.3011.3292c-.1394.0956-.2967.1621-.4624.1955s-.3365.033-.5021-.0012c-.3515-.0581-.6804-.2117-.9505-.4441-.3881-.3847-.8646-.6682-1.3878-.8257-.5547-.1568-1.1308-.2248-1.7069-.2012-.6548-.0144-1.3038.1258-1.8942.4094-.2276.0879-.4227.2434-.5592.4457-.1364.2022-.2077.4413-.204.6853.0017.2936.0885.5803.2497.8257.253.3047.5875.531.9645.6522.6931.2383 1.4059.4148 2.1302.5273 1.0342.1787 2.0385.501 2.9836.9576.6429.2976 1.1941.7625 1.5958 1.346.3439.5342.5291 1.155.5343 1.7902.0137.7531-.1937 1.4938-.5967 2.1302-.4536.6572-1.0805 1.176-1.811 1.4987-.9478.4103-1.9716.616-3.0044.6037z"/><path d="m61.3858 26.9704c-1.1258.0141-2.2455-.1667-3.3097-.5343-.8853-.283-1.6977-.7567-2.38-1.3877-.1214-.1201-.2138-.2662-.2703-.4273s-.0756-.3329-.0558-.5025c.0149-.1698.0659-.3344.1497-.4828.0837-.1484.1983-.2772.336-.3776.1325-.1256.2899-.222.462-.283.1722-.0609.3552-.0851.5372-.0709.3314.0347.6392.1874.8673.4302.3958.3894.8684.6919 1.3877.8882.6755.2763 1.4005.4109 2.1302.3955.7912.0274 1.5752-.1596 2.2689-.5412.2292-.1242.4221-.3059.5596-.5274s.2149-.475.2245-.7355c-.0072-.2608-.0779-.516-.2061-.7434-.1281-.2273-.3099-.4199-.5294-.561-.8524-.4868-1.7984-.7871-2.7755-.8812-1.3592-.1681-2.6533-.6791-3.7607-1.4849-.3704-.2978-.6693-.675-.8747-1.1037-.2053-.4287-.3119-.898-.3118-1.3734-.0116-.7697.2628-1.5164.7702-2.0954.5265-.5942 1.1983-1.0413 1.9497-1.2975.7998-.3084 1.6478-.4729 2.5049-.4857 1.0223-.0326 2.041.1372 2.9975.4995.8053.2996 1.5215.7985 2.0815 1.4502.222.2287.3464.5347.347.8535-.0106.1502-.0547.2961-.1291.427-.0745.1309-.1774.2434-.3011.3293-.1393.096-.2965.1627-.4623.1961s-.3367.0328-.5022-.0019c-.3516-.058-.6804-.2116-.9506-.444-.3862-.387-.8633-.6709-1.3877-.8257-.5568-.1592-1.1352-.2294-1.7138-.2082-.654-.0133-1.3022.1245-1.8943.4025-.2275.0879-.4227.2434-.5592.4456-.1364.2022-.2076.4414-.204.6854.0016.2957.0883.5848.2498.8326.2557.3033.5927.5271.9714.6453.6905.2405 1.401.4193 2.1232.5343 1.0494.1657 2.0702.4787 3.0322.9297.6429.2977 1.194.7626 1.5958 1.3461.3478.5324.5334 1.1543.5343 1.7902.0223.753-.1885 1.4945-.6037 2.1232-.4462.6887-1.0824 1.2334-1.8317 1.5681-.9655.4242-2.0127.6303-3.0669.6037z"/><path d="m82.0491 13.1834c-.2559-.2341-.59-.3639-.9368-.3639-.3467 0-.6809.1298-.9367.3639-.1259.1212-.2241.2684-.2876.4314-.0635.1629-.0908.3377-.0801.5122v7.1745c-.0026.5947-.1892 1.174-.5343 1.6583-.3581.4948-.8354.8911-1.3877 1.1519-.6064.2972-1.2745.4469-1.9498.4371-.7191.01-1.431-.1442-2.0815-.451-.6149-.3046-1.1229-.7885-1.4572-1.3877-.3804-.7263-.5623-1.5401-.5273-2.3592v-6.2447c.0168-.1738-.0014-.3492-.0536-.5157-.0523-.1666-.1374-.321-.2504-.4541s-.2515-.2422-.4074-.3207c-.1559-.0786-.326-.1251-.5002-.1367s-.349.0119-.5139.0691c-.165.0571-.3168.1468-.4464.2637-.1297.1169-.2346.2587-.3084.4169-.0739.1582-.1153.3296-.1217.504-.0072.0576-.0072.1159 0 .1735v6.2864c-.0386 1.2386.2409 2.4665.8119 3.5664.4992.9342 1.2615 1.7014 2.1926 2.2065.9702.5116 2.0533.7716 3.1501.7563 1.0626.0215 2.1125-.2344 3.046-.7424.475-.2629.9116-.5897 1.2975-.9714v.2844c-.0061.1714.0227.3422.0848.5021.062.1598.1559.3053.2761.4277.2563.2358.5956.3605.9436.3469.3309.0132.6535-.1047.8978-.3282s.3905-.5345.4067-.8652v-11.4695c.0105-.1679-.0129-.3361-.0689-.4947-.0561-.1586-.1436-.3042-.2572-.4281z"/><path d="m94.7953 13.1834c-.6977-.3811-1.4898-.5545-2.2828-.4996-.8087-.0142-1.6109.1471-2.3512.473-.7403.3258-1.4011.8083-1.9369 1.4143v-.4857c.0313-.3377-.0729-.674-.2895-.9349-.2167-.2609-.5281-.425-.8658-.4563s-.6739.0728-.9348.2895-.4251.5281-.4564.8658c-.0069.0784-.0069.1574 0 .2359v11.4279c-.0137.1734.0081.3477.0642.5124.0561.1646.1452.3161.2619.4451.2622.2231.5999.3374.9437.3192.1728.0213.3481.003.5128-.0536.1646-.0566.3141-.15.4372-.2731s.2165-.2727.2731-.4373.075-.34.0536-.5127v-7.4382c-.0097-.3569.0523-.712.1822-1.0445s.3251-.6356.5741-.8914c.57-.5583 1.2957-.9309 2.0816-1.0685.9715-.1865 1.9713-.1676 2.935.0555.2021.0347.4086.0347.6106 0 .1847-.0365.3569-.1201.4996-.2429.1507-.1432.2526-.33.2914-.5343.0434-.2337.0076-.4753-.1017-.6864-.1093-.2112-.286-.3798-.5019-.4792z"/><path d="m109.991 13.1834c-.256-.2341-.59-.3639-.937-.3639s-.681.1298-.937.3639c-.126.1214-.224.2685-.289.4312-.065.1628-.094.3375-.085.5124v7.1745c0 .594-.185 1.1734-.528 1.6583-.358.4998-.835.9028-1.387 1.1727-.607.2957-1.275.4454-1.95.4371-.719.0081-1.431-.1461-2.082-.451-.614-.3028-1.12-.7873-1.45-1.3877-.3803-.7263-.5622-1.5401-.5272-2.3592v-6.2447c-.0041-.2529-.0812-.4993-.2221-.7094s-.3396-.375-.5721-.4747-.4889-.1301-.7382-.0874c-.2494.0426-.481.1565-.6671.3279-.1217.1215-.2172.2667-.2804.4267-.0633.1599-.093.3311-.0874.503v6.2864c-.0374 1.2377.2395 2.4647.8049 3.5664.4992.9343 1.2615 1.7014 2.1926 2.2065.967.507 2.045.7646 3.136.7494 1.065.0208 2.117-.235 3.053-.7424.471-.2631.903-.59 1.284-.9714v.2844c-.004.1724.027.3438.091.5037s.161.3049.284.4261c.256.236.591.367.94.367.348 0 .684-.131.94-.367.235-.2514.363-.5854.354-.9298v-11.3862c.007-.1686-.02-.3369-.078-.4953-.059-.1583-.148-.3036-.262-.4275z"/><path d="m114.487 32.7572c-.167.0046-.333-.0237-.489-.0833s-.298-.1493-.419-.264-.219-.2521-.287-.4044c-.068-.1524-.105-.3166-.11-.4834v-11.6985c0-1.2668.328-2.5121.951-3.615.59-1.0568 1.453-1.9361 2.498-2.5465.796-.4715 1.678-.7814 2.594-.9121s1.849-.0796 2.745.1505c.896.23 1.739.6345 2.479 1.1902s1.363 1.2518 1.834 2.0485c.001.014.005.0276.012.0396.007.0121.017.0223.029.0298.624 1.1016.945 2.349.93 3.615.015 1.2575-.28 2.4993-.86 3.615-.544 1.0308-1.348 1.9015-2.332 2.5257-.914.5523-1.951.8693-3.018.9225-1.067.0533-2.13-.1588-3.095-.6172-.816-.4157-1.541-.9915-2.13-1.693v6.9386c.006.1725-.025.3442-.091.5037-.066.1594-.166.3029-.292.4206s-.276.207-.44.2618-.337.0738-.509.0559zm5.71-8.1598c.819.0087 1.623-.2098 2.325-.6314.672-.4202 1.222-1.0086 1.596-1.7069.393-.7565.599-1.5967.599-2.4494s-.206-1.6928-.599-2.4493c-.374-.7003-.924-1.291-1.596-1.7138-1.013-.6137-2.227-.8005-3.377-.5195s-2.142 1.0068-2.757 2.0182l-.118.2151c-.383.7597-.582 1.5986-.582 2.4493 0 .8508.199 1.6897.582 2.4494.38.7106.946 1.304 1.638 1.7162.692.4121 1.484.6272 2.289.6221z"/><path d="m37.6628 12.7115c-.345-.0228-.685.0922-.9452.3199s-.4194.5494-.4426.8944v2.8864 8.7288c-.0124.339.1077.6695.3349.9214.2271.252.5435.4055.882.4281.3384.0225.6724-.0877.931-.3072s.4215-.5312.4541-.8688c.0073-.0576.0073-.1159 0-.1735v-1.9497-9.492c.0229-.3451-.0922-.685-.3199-.9452s-.5493-.4194-.8943-.4426z"/></g></svg>